<svg enable-background="new 0 0 125.696 262.936"  viewBox="0 0 125.696 262.936"  xmlns="http://www.w3.org/2000/svg"><g fill="#232323"><path d="m35.157 149.932c-1.365 0-2.6-.938-2.92-2.325-.373-1.614.633-3.226 2.247-3.599l78.208-18.08c1.616-.375 3.225.633 3.599 2.247.373 1.614-.633 3.226-2.247 3.599l-78.208 18.08c-.228.053-.455.078-.679.078z"/><path d="m3 62.76c-.768 0-1.536-.293-2.121-.879-1.172-1.171-1.172-3.071 0-4.242l56.76-56.76c1.171-1.172 3.071-1.172 4.242 0 1.172 1.171 1.172 3.071 0 4.242l-56.76 56.76c-.586.586-1.354.879-2.121.879z"/><path d="m122.698 262.937c-.259 0-.521-.034-.783-.104l-77.504-20.893c-1.6-.431-2.547-2.077-2.116-3.678.431-1.6 2.078-2.541 3.677-2.115l77.504 20.893c1.6.431 2.547 2.077 2.116 3.678-.361 1.338-1.572 2.219-2.894 2.219z"/></g></svg>